<?xml version="1.0" standalone="no"?>
<!DOCTYPE svg PUBLIC "-//W3C//DTD SVG 20010904//EN"
 "http://www.w3.org/TR/2001/REC-SVG-20010904/DTD/svg10.dtd">
<svg version="1.0" xmlns="http://www.w3.org/2000/svg"
 width="526.000000pt" height="454.000000pt" viewBox="0 0 526.000000 454.000000"
 preserveAspectRatio="xMidYMid meet">

<g transform="translate(0.000000,454.000000) scale(0.100000,-0.100000)"
fill="#000000" stroke="none">
<path d="M1946 4380 c2 -46 0 -50 -21 -50 -14 0 -40 -19 -70 -51 -46 -49 -47
-51 -40 -100 6 -40 4 -54 -9 -68 -9 -10 -18 -31 -19 -47 -1 -16 -5 -32 -10
-35 -4 -3 -3 -45 2 -95 9 -85 8 -91 -14 -124 -27 -40 -34 -104 -16 -138 16
-31 17 -72 1 -102 -16 -30 -16 -125 0 -145 9 -10 10 -29 6 -58 -15 -85 -8
-112 39 -153 24 -20 50 -34 66 -34 25 0 29 6 48 69 12 38 21 74 21 79 0 9 23
22 39 22 4 0 5 -15 3 -33 -3 -27 1 -36 20 -45 12 -7 15 -10 6 -8 -10 3 -20 1
-23 -3 -2 -5 4 -11 15 -14 12 -3 20 -14 20 -26 0 -12 4 -21 9 -21 6 0 8 -10 6
-22 -6 -29 41 -79 51 -54 7 17 44 23 44 6 0 -5 -7 -7 -15 -4 -8 4 -15 2 -15
-4 0 -6 6 -12 12 -14 8 -3 4 -9 -10 -17 -18 -10 -23 -9 -28 4 -11 28 -20 16
-22 -31 -1 -25 3 -55 9 -66 6 -11 12 -33 14 -50 3 -16 20 -51 40 -78 21 -29
33 -54 29 -64 -4 -11 -1 -16 10 -16 9 0 16 -6 14 -12 -2 -7 9 -29 25 -49 15
-20 27 -42 27 -49 0 -7 7 -18 14 -24 8 -6 16 -18 18 -25 2 -8 13 -25 26 -37
12 -12 20 -28 17 -36 -4 -10 1 -17 14 -21 12 -3 24 -13 28 -24 5 -10 14 -18
21 -19 6 -1 19 -2 27 -2 8 -1 15 -11 15 -22 0 -11 4 -20 10 -20 5 0 7 6 4 14
-6 16 24 36 51 36 11 0 15 -5 11 -15 -4 -13 -2 -14 14 -5 11 6 20 15 20 20 0
6 6 10 13 10 15 1 113 90 97 90 -6 0 -8 5 -4 11 4 7 12 5 23 -6 12 -13 13 -19
4 -22 -7 -3 -13 -10 -13 -16 0 -6 7 -4 16 5 13 13 14 20 4 39 -11 20 -10 25
10 38 29 20 77 69 110 111 35 44 186 192 238 232 23 18 42 36 42 42 0 5 8 15
18 23 15 13 15 14 0 9 -9 -3 -19 -1 -22 5 -2 5 -3 4 -2 -3 3 -18 -36 -59 -51
-54 -7 3 -13 -2 -13 -10 0 -8 -4 -12 -10 -9 -5 3 -15 -5 -21 -19 -7 -14 -16
-23 -20 -20 -5 2 -17 -4 -28 -15 -13 -13 -27 -18 -37 -14 -14 5 -16 2 -12 -15
4 -14 2 -19 -7 -16 -6 3 -20 -7 -30 -22 -14 -21 -19 -24 -27 -13 -7 10 -8 5
-3 -14 5 -25 3 -28 -13 -23 -16 5 -21 0 -26 -24 -5 -25 -10 -30 -25 -25 -13 4
-20 0 -24 -16 -4 -15 -11 -20 -22 -15 -13 5 -15 1 -9 -17 3 -12 3 -19 -1 -15
-5 4 -14 0 -21 -10 -15 -21 -128 -26 -119 -4 2 6 -1 12 -7 12 -9 0 -9 3 0 12
26 26 10 30 -17 4 -17 -17 -31 -23 -35 -17 -4 5 -12 8 -19 5 -7 -2 -19 7 -27
21 -7 14 -16 22 -19 18 -3 -5 -12 -9 -19 -11 -10 -2 -12 4 -7 20 6 19 5 21 -6
11 -18 -18 -42 -16 -36 1 6 16 -19 43 -30 33 -3 -4 -12 5 -20 20 -9 18 -10 30
-3 37 5 5 10 17 10 26 -1 8 -8 2 -17 -15 -15 -27 -17 -28 -23 -10 -4 11 -3 22
1 23 5 2 14 13 21 25 10 20 10 21 -5 9 -18 -15 -37 -8 -37 14 0 8 -4 14 -8 14
-4 0 -15 13 -24 28 -14 23 -15 32 -5 42 9 10 9 11 0 6 -8 -4 -13 -1 -13 8 0 9
-5 16 -12 16 -9 0 -9 3 0 12 15 15 16 32 2 23 -5 -3 -10 1 -10 9 0 9 -6 16
-12 16 -9 0 -9 3 -2 8 15 10 13 54 -3 48 -6 -3 -15 5 -19 17 -4 12 -2 23 5 25
6 2 11 11 11 19 0 13 -3 13 -15 3 -13 -11 -14 -8 -11 19 2 17 -1 31 -6 31 -5
0 -9 10 -8 23 4 41 0 68 -8 63 -5 -3 -8 -32 -7 -65 1 -33 -1 -58 -3 -56 -3 3
-11 0 -19 -6 -10 -9 -13 -7 -13 7 0 16 -2 17 -10 4 -6 -9 -10 -10 -10 -3 0 6
7 19 16 27 14 15 14 16 -6 16 -16 0 -19 4 -12 18 5 9 8 44 5 76 -2 41 1 62 9
68 9 5 8 8 -6 8 -15 0 -16 3 -6 15 7 8 12 38 12 67 -1 76 16 140 60 239 21 48
38 93 38 100 0 8 15 21 33 29 18 9 39 30 49 50 10 19 26 46 35 59 10 13 17 29
15 34 -1 5 5 15 14 21 9 7 17 25 17 40 0 18 13 40 42 69 24 23 50 58 58 78 15
37 88 101 74 65 -4 -10 -1 -23 7 -32 8 -7 16 -10 18 -4 2 5 23 10 48 12 48 2
56 6 98 51 33 36 61 32 136 -18 44 -29 65 -36 120 -40 40 -3 65 -2 62 4 -3 5
17 1 44 -10 28 -10 58 -19 68 -19 9 0 34 -5 54 -10 32 -9 37 -14 36 -39 -1
-16 6 -37 16 -46 18 -19 21 -45 5 -45 -7 0 -5 -9 5 -22 9 -13 21 -33 26 -45 5
-13 14 -23 19 -23 12 0 3 -150 -10 -167 -6 -7 -6 -12 1 -15 8 -2 8 -11 1 -31
-6 -16 -8 -40 -4 -55 6 -25 4 -24 -26 11 -18 20 -36 36 -39 35 -14 -3 -67 15
-82 27 -8 7 -30 16 -48 20 -26 5 -36 3 -47 -12 -12 -16 -14 -16 -15 -2 0 17
-40 35 -40 18 0 -4 -7 -6 -15 -3 -21 9 -19 -25 3 -42 16 -12 16 -13 0 -14 -9
0 -19 -8 -22 -18 -4 -10 -20 -28 -36 -40 -17 -13 -30 -30 -30 -40 0 -13 3 -12
16 6 21 31 36 28 28 -5 -7 -27 -6 -27 12 -12 28 23 80 39 133 39 35 0 42 3 31
11 -19 13 76 2 102 -12 25 -14 67 -79 61 -95 -3 -8 0 -14 6 -14 14 0 5 -231
-11 -295 -10 -41 -79 -187 -99 -212 -9 -10 -9 -17 -1 -25 23 -23 41 -16 52 20
20 63 34 92 46 92 6 0 17 7 24 15 7 8 16 12 21 9 5 -3 6 3 2 12 -5 14 -3 16
11 11 13 -5 17 -3 13 7 -3 8 2 20 11 28 15 12 16 11 3 -4 -26 -33 5 -18 37 18
32 36 35 48 32 118 -1 31 1 38 13 33 17 -6 47 22 47 45 0 8 7 30 16 48 9 17
16 44 16 59 -1 31 23 92 56 141 20 29 23 42 17 80 -4 25 -6 58 -6 74 1 16 -4
33 -10 37 -9 5 -8 14 4 33 14 21 15 34 8 68 -11 45 -4 125 10 134 5 3 9 40 9
83 0 72 -2 81 -30 116 -16 21 -30 42 -30 46 0 5 -342 9 -763 9 l-763 0 2 -50z
m-84 -602 c-7 -7 -12 -8 -12 -2 0 14 12 26 19 19 2 -3 -1 -11 -7 -17z m-1
-112 c5 -6 13 3 20 22 13 37 26 42 25 10 -1 -17 5 -24 22 -26 25 -4 29 -17 7
-26 -9 -3 -15 -18 -15 -38 l1 -33 24 28 c14 15 25 39 25 53 0 13 5 24 11 24 5
0 7 -4 4 -10 -3 -5 0 -10 7 -10 9 0 9 -3 -2 -10 -11 -7 -12 -10 -2 -10 11 0
13 -24 9 -116 -3 -63 -7 -118 -11 -121 -3 -4 -6 1 -6 10 0 10 -4 17 -10 17 -5
0 -10 -6 -10 -14 0 -27 -35 -59 -57 -52 -26 8 -53 72 -53 129 -1 23 -7 70 -14
104 -10 48 -11 72 -2 105 l11 43 3 -35 c2 -19 8 -39 13 -44z m1464 -325 c-3
-6 -11 -11 -16 -11 -5 0 -4 6 3 14 14 16 24 13 13 -3z m-1268 -127 c-4 -4 2
-14 12 -24 13 -10 17 -21 11 -30 -6 -9 -12 -5 -24 18 -19 37 -20 42 -4 42 6 0
8 -3 5 -6z m78 -134 c3 -5 -1 -10 -10 -10 -9 0 -13 5 -10 10 3 6 8 10 10 10 2
0 7 -4 10 -10z"/>
<path d="M1941 3514 c0 -11 3 -14 6 -6 3 7 2 16 -1 19 -3 4 -6 -2 -5 -13z"/>
<path d="M2478 3985 c-2 -2 -26 -5 -53 -5 -72 -3 -134 -26 -180 -66 l-40 -36
41 6 c23 3 54 13 70 21 47 24 169 13 200 -18 4 -4 14 -7 21 -7 8 0 29 -11 47
-25 40 -30 50 -32 36 -5 -8 15 -8 20 2 20 7 0 22 7 33 16 17 12 18 16 5 24 -9
6 -17 5 -22 -3 -4 -7 -8 -9 -9 -4 -1 4 -3 12 -4 17 -1 6 -3 15 -4 20 0 6 -6
10 -12 10 -7 0 -9 -10 -5 -27 l7 -28 -19 30 c-10 17 -25 35 -33 41 -15 12 -74
26 -81 19z"/>
<path d="M2323 3859 c-45 -22 -58 -42 -43 -67 5 -10 10 -12 10 -6 0 13 48 7
67 -8 7 -5 26 -7 43 -3 22 5 29 3 27 -7 -2 -7 -2 -10 0 -5 3 4 13 7 23 7 10 0
22 9 25 21 5 16 10 18 21 8 17 -14 19 -33 2 -23 -9 5 -10 4 -3 -3 6 -6 28 -13
50 -16 l40 -6 -40 35 c-22 19 -53 42 -69 51 -34 18 -116 19 -149 2 -15 -8 -19
-8 -12 0 6 6 28 17 50 25 24 9 32 15 20 15 -11 1 -39 -8 -62 -20z m47 -49 c0
-5 -5 -10 -11 -10 -5 0 -7 5 -4 10 3 6 8 10 11 10 2 0 4 -4 4 -10z"/>
<path d="M2500 3845 c25 -15 54 -34 64 -43 18 -16 18 -16 8 4 -14 26 -51 51
-88 59 -24 6 -21 2 16 -20z"/>
<path d="M3103 3709 c40 -31 33 -42 -9 -14 -41 28 -81 31 -150 14 -58 -15 -70
-34 -15 -24 34 6 41 4 41 -9 0 -9 10 -20 23 -25 12 -5 31 -17 42 -28 11 -10
30 -17 43 -15 12 2 22 -1 22 -6 0 -5 9 -12 20 -15 13 -3 18 -10 14 -21 -5 -12
-2 -15 11 -10 10 4 15 14 12 25 -6 22 -3 23 26 8 22 -11 22 -11 -1 10 -12 12
-20 26 -17 31 8 14 -21 66 -47 84 -33 24 -47 19 -15 -5z m-78 -9 c3 -5 1 -10
-4 -10 -6 0 -11 5 -11 10 0 6 2 10 4 10 3 0 8 -4 11 -10z m55 -60 c0 -5 -4
-10 -10 -10 -5 0 -10 5 -10 10 0 6 5 10 10 10 6 0 10 -4 10 -10z"/>
<path d="M3075 3530 c28 -12 37 -12 30 0 -3 6 -16 10 -28 9 -21 0 -21 -1 -2
-9z"/>
<path d="M2471 3445 c0 -5 4 -19 8 -30 5 -11 4 -25 -2 -33 -7 -9 -5 -11 9 -5
14 5 11 -3 -14 -34 -37 -47 -41 -68 -12 -60 11 3 20 1 20 -5 0 -6 11 -3 25 6
32 21 34 20 27 -6 -3 -14 -2 -19 6 -14 7 4 12 2 12 -4 0 -6 4 -9 9 -6 12 8 73
-18 64 -27 -6 -6 21 -11 55 -10 6 1 12 -4 12 -9 0 -5 8 -7 18 -4 9 3 24 1 32
-5 33 -24 -144 -1 -238 30 -51 18 -113 34 -138 38 -60 8 -66 22 -7 17 40 -4
50 -1 75 23 15 14 28 31 28 37 0 6 -5 5 -12 -2 -16 -16 -38 -15 -38 2 0 9 -7
12 -21 9 -11 -3 -18 -11 -16 -18 3 -7 -3 -11 -16 -9 -12 1 -26 3 -31 3 -4 1
-6 8 -2 16 6 17 -9 21 -19 5 -9 -15 -35 -12 -35 3 0 8 9 22 20 32 27 24 19 30
-17 12 -44 -23 -66 -53 -67 -94 -1 -36 0 -37 37 -38 29 -1 48 -11 80 -41 22
-21 47 -47 55 -56 16 -22 42 -23 42 -2 0 8 -5 12 -11 9 -11 -7 -49 27 -49 43
0 12 49 12 56 0 3 -5 11 -5 19 2 13 11 45 4 45 -10 0 -4 11 -5 25 -2 15 2 25
0 25 -8 0 -6 8 -9 18 -6 10 4 27 -1 38 -9 10 -8 33 -15 51 -15 17 0 34 -4 37
-8 3 -5 21 -8 41 -7 31 1 35 -2 35 -25 0 -24 -29 -78 -30 -55 0 6 -27 10 -60
10 -51 0 -58 -2 -43 -12 9 -7 28 -13 42 -13 21 0 23 -2 11 -10 -8 -5 -11 -10
-6 -10 5 0 3 -6 -3 -14 -33 -40 80 -23 118 18 13 14 40 36 60 50 42 29 111 39
119 17 3 -10 0 -12 -13 -7 -12 4 -16 2 -12 -8 3 -8 -1 -17 -9 -20 -8 -3 -14
-14 -14 -25 0 -11 -6 -21 -12 -24 -7 -3 -3 -4 9 -4 19 1 21 5 16 27 -5 21 -4
23 9 13 13 -11 19 -5 41 40 25 50 26 62 11 135 -5 26 -26 31 -22 5 2 -10 -3
-18 -9 -17 -38 3 -43 5 -43 18 0 7 -7 19 -15 26 -8 7 -15 28 -15 47 0 31 -2
33 -20 23 -12 -6 -33 -10 -48 -9 -15 2 -48 -1 -74 -5 -41 -7 -51 -5 -80 17
-48 36 -93 57 -122 57 -15 0 -32 10 -45 28 -11 15 -20 23 -20 17z m-211 -109
c0 -3 -4 -8 -10 -11 -5 -3 -10 -1 -10 4 0 6 5 11 10 11 6 0 10 -2 10 -4z m554
-151 c-4 -8 -11 -15 -16 -15 -6 0 -5 6 2 15 7 8 14 15 16 15 2 0 1 -7 -2 -15z
m17 -18 c-10 -9 -11 -8 -5 6 3 10 9 15 12 12 3 -3 0 -11 -7 -18z"/>
<path d="M2031 3404 c0 -11 3 -14 6 -6 3 7 2 16 -1 19 -3 4 -6 -2 -5 -13z"/>
<path d="M2050 3385 c-8 -9 -8 -15 -2 -15 12 0 26 19 19 26 -2 2 -10 -2 -17
-11z"/>
<path d="M2210 3239 c0 -5 5 -7 10 -4 6 3 10 8 10 11 0 2 -4 4 -10 4 -5 0 -10
-5 -10 -11z"/>
<path d="M2207 3203 c-4 -3 -7 -11 -7 -17 0 -6 5 -5 12 2 6 6 9 14 7 17 -3 3
-9 2 -12 -2z"/>
<path d="M2464 3136 c4 -11 2 -22 -4 -26 -5 -3 10 -16 35 -28 54 -26 60 -21 8
7 l-38 20 30 1 c30 1 30 1 5 11 -13 6 -28 15 -33 22 -6 8 -7 5 -3 -7z"/>
<path d="M2420 3125 c7 -8 17 -12 22 -9 6 4 5 10 -3 15 -22 14 -33 10 -19 -6z"/>
<path d="M2535 3093 c11 -3 26 -10 33 -16 7 -5 16 -7 19 -3 11 11 -19 26 -47
25 -21 -1 -21 -2 -5 -6z"/>
<path d="M2432 3003 c-18 -7 -4 -23 19 -23 11 0 17 -4 14 -10 -3 -5 -1 -10 4
-10 6 0 11 -7 11 -16 0 -21 27 -47 40 -39 6 4 10 3 9 -2 -1 -4 -1 -17 0 -28 2
-19 3 -19 15 -3 7 10 16 15 19 11 4 -3 7 1 7 10 0 10 5 17 11 17 6 0 8 -9 4
-20 -3 -11 -2 -20 3 -20 12 0 24 29 16 41 -3 5 0 9 5 9 6 0 11 -4 11 -10 0 -5
7 -10 15 -10 8 0 15 7 15 15 0 8 5 15 10 15 6 0 10 -4 10 -10 0 -5 9 -1 20 10
25 25 17 45 -11 29 -11 -5 -27 -9 -37 -7 -9 1 -23 -1 -29 -5 -8 -5 -13 -3 -13
3 0 6 -4 9 -9 6 -5 -4 -11 0 -14 6 -3 10 -9 10 -26 0 -19 -11 -24 -10 -39 6
-20 22 -62 41 -80 35z"/>
<path d="M2670 2889 c0 -5 5 -7 10 -4 6 3 10 8 10 11 0 2 -4 4 -10 4 -5 0 -10
-5 -10 -11z"/>
<path d="M2320 2829 c0 -5 5 -7 10 -4 6 3 10 8 10 11 0 2 -4 4 -10 4 -5 0 -10
-5 -10 -11z"/>
<path d="M2350 2798 c-12 -22 -12 -22 6 -6 10 10 15 20 12 24 -4 3 -12 -5 -18
-18z"/>
<path d="M2454 2775 c-9 -47 -1 -53 12 -9 6 19 8 37 3 40 -4 2 -11 -12 -15
-31z"/>
<path d="M2615 2740 c-3 -5 -1 -10 4 -10 6 0 11 5 11 10 0 6 -2 10 -4 10 -3 0
-8 -4 -11 -10z"/>
<path d="M404 2625 c3 -22 6 -48 6 -57 0 -15 9 -18 63 -17 77 1 126 17 54 18
-27 1 -46 5 -42 10 7 12 -22 41 -40 41 -8 0 -21 10 -31 23 -16 22 -16 21 -10
-18z"/>
<path d="M1208 2613 c25 -27 57 -68 73 -93 16 -25 29 -40 29 -34 0 18 -79 132
-107 154 -44 34 -41 22 5 -27z"/>
<path d="M476 2491 c-4 -5 -2 -12 3 -15 5 -4 12 -2 15 3 4 5 2 12 -3 15 -5 4
-12 2 -15 -3z"/>
<path d="M555 2490 c-3 -5 -1 -10 4 -10 6 0 11 5 11 10 0 6 -2 10 -4 10 -3 0
-8 -4 -11 -10z"/>
<path d="M678 2483 c23 -2 59 -2 80 0 20 2 1 4 -43 4 -44 0 -61 -2 -37 -4z"/>
<path d="M2430 2470 c0 -5 5 -10 11 -10 5 0 7 5 4 10 -3 6 -8 10 -11 10 -2 0
-4 -4 -4 -10z"/>
<path d="M333 2423 c32 -2 81 -2 110 0 29 2 3 3 -58 3 -60 0 -84 -1 -52 -3z"/>
<path d="M2530 2409 c0 -5 5 -7 10 -4 6 3 10 8 10 11 0 2 -4 4 -10 4 -5 0 -10
-5 -10 -11z"/>
<path d="M2536 2252 c-3 -27 -9 -52 -13 -56 -4 -3 -12 -22 -19 -42 -10 -30
-10 -36 3 -41 8 -3 24 4 36 16 18 18 22 33 22 86 0 82 -19 107 -29 37z"/>
<path d="M476 2283 c-4 -4 -13 -8 -19 -8 -7 0 -15 -22 -18 -50 -4 -27 -17 -79
-30 -115 -18 -52 -29 -68 -53 -80 -48 -23 -47 -64 3 -141 51 -78 54 -118 12
-160 -37 -36 -60 -37 -103 -2 l-33 27 29 -32 c21 -22 25 -32 15 -32 -9 0 -27
12 -41 28 -56 59 -115 128 -131 152 -9 13 -17 20 -17 15 0 -6 25 -41 56 -80
l56 -70 -56 -5 c-30 -3 -61 -11 -68 -18 -11 -11 -10 -12 4 -7 23 9 86 -41 135
-108 l38 -51 7 58 c7 57 25 85 56 86 10 0 11 -6 5 -22 -4 -13 -7 -47 -5 -77 2
-48 1 -52 -13 -41 -14 11 -15 9 -13 -21 3 -49 36 -101 56 -90 16 9 49 2 97
-22 38 -18 86 -30 83 -20 -1 5 4 20 11 34 11 23 10 32 -9 70 -31 61 -68 109
-86 109 -7 0 -14 4 -14 8 0 14 40 52 55 52 11 0 12 16 9 78 -3 42 -10 94 -16
115 -13 44 -5 65 33 84 13 7 23 19 21 27 -1 9 6 32 16 53 11 21 23 52 26 70 4
17 13 37 21 43 14 11 10 44 -4 35 -4 -2 -27 -41 -51 -87 -23 -46 -47 -89 -52
-95 -15 -19 -31 -16 -24 4 6 15 5 15 -13 -1 -19 -17 -21 -17 -27 -2 -7 19 23
152 42 184 8 12 22 34 31 50 10 17 12 22 3 15 -21 -20 -32 -15 -20 8 12 22 10
45 -4 32z m-16 -703 c6 -11 8 -20 6 -20 -3 0 -10 9 -16 20 -6 11 -8 20 -6 20
3 0 10 -9 16 -20z m-120 -100 c0 -5 -4 -10 -10 -10 -5 0 -10 5 -10 10 0 6 5
10 10 10 6 0 10 -4 10 -10z"/>
<path d="M2590 2145 c0 -27 3 -45 7 -41 7 7 5 77 -2 85 -3 2 -5 -17 -5 -44z"/>
<path d="M2444 2146 c11 -9 24 -16 30 -16 12 0 7 5 -24 19 -24 11 -24 11 -6
-3z"/>
<path d="M1282 2028 c-6 -14 -25 -54 -42 -87 -16 -34 -26 -61 -21 -61 14 0 84
145 78 161 -3 9 -8 5 -15 -13z"/>
<path d="M1225 2010 c-4 -17 -5 -34 -2 -36 3 -3 8 9 12 26 4 17 5 34 2 36 -3
3 -8 -9 -12 -26z"/>
<path d="M1716 1945 c-9 -26 -7 -32 5 -12 6 10 9 21 6 23 -2 3 -7 -2 -11 -11z"/>
<path d="M1647 1796 c-26 -44 -91 -128 -143 -186 -91 -99 -154 -180 -154 -196
0 -4 10 6 22 22 13 16 48 56 80 89 106 113 178 206 214 277 19 38 34 71 32 73
-2 1 -25 -34 -51 -79z"/>
<path d="M885 1579 c-11 -17 1 -21 15 -4 8 9 8 15 2 15 -6 0 -14 -5 -17 -11z"/>
<path d="M895 1530 c-3 -5 2 -35 11 -65 14 -44 16 -62 7 -84 l-10 -29 27 16
c25 14 26 17 14 41 -8 14 -14 36 -14 48 0 32 -11 54 -23 46 -6 -4 -8 2 -5 15
6 23 3 28 -7 12z"/>
<path d="M1215 1495 c2 -22 5 -47 5 -56 0 -12 7 -15 25 -11 14 2 25 11 25 18
0 8 5 14 10 14 24 0 7 21 -21 27 -18 3 -35 15 -40 27 -7 16 -8 11 -4 -19z"/>
<path d="M986 1492 c-3 -5 4 -18 16 -28 21 -19 21 -19 8 6 -17 33 -17 33 -24
22z"/>
<path d="M100 1444 c0 -5 14 -29 30 -54 16 -25 30 -50 30 -56 0 -6 7 -17 15
-24 12 -10 11 -5 -2 21 -24 49 -73 125 -73 113z"/>
<path d="M605 1360 c-3 -5 -1 -10 4 -10 6 0 11 5 11 10 0 6 -2 10 -4 10 -3 0
-8 -4 -11 -10z"/>
<path d="M375 1340 c-4 -12 -5 -24 -2 -27 3 -2 8 5 12 17 4 12 5 24 2 27 -3 2
-8 -5 -12 -17z"/>
<path d="M558 1353 c6 -2 18 -2 25 0 6 3 1 5 -13 5 -14 0 -19 -2 -12 -5z"/>
<path d="M405 1340 c3 -5 18 -10 33 -10 21 0 24 2 12 10 -20 13 -53 13 -45 0z"/>
<path d="M220 1306 c0 -2 8 -10 18 -17 15 -13 16 -12 3 4 -13 16 -21 21 -21
13z"/>
<path d="M1160 1282 c-62 -6 -90 -14 -90 -23 0 -6 9 -8 20 -4 11 4 36 1 56 -5
39 -13 47 -10 42 17 -2 13 -10 17 -28 15z"/>
<path d="M290 1270 c-41 -6 -43 -7 -18 -14 17 -5 35 -3 55 8 15 8 24 15 18 14
-5 -1 -30 -4 -55 -8z"/>
<path d="M966 1262 c-2 -4 4 -14 16 -21 11 -7 17 -8 13 -2 -4 7 5 11 24 11 17
0 31 4 31 8 0 11 -77 15 -84 4z"/>
<path d="M1028 1233 c6 -2 18 -2 25 0 6 3 1 5 -13 5 -14 0 -19 -2 -12 -5z"/>
<path d="M1167 1206 c-9 -7 -29 -11 -43 -8 -20 4 -25 2 -19 -8 10 -16 -17 -33
-28 -17 -6 9 -7 8 -6 -3 3 -31 -2 -37 -53 -49 -29 -8 -59 -18 -65 -24 -9 -6
-17 -6 -26 1 -7 6 -30 12 -51 14 -27 2 -40 8 -42 19 -1 12 4 15 19 11 14 -4
18 -1 13 7 -6 9 0 10 19 5 27 -7 75 11 75 28 0 4 -17 5 -39 2 -22 -4 -47 -1
-60 5 -16 9 -21 9 -21 -1 0 -9 -3 -9 -10 2 -8 12 -10 12 -10 -5 0 -14 -3 -16
-8 -8 -11 17 -72 29 -72 14 0 -6 7 -11 15 -11 20 0 19 -13 -3 -33 -16 -15 -19
-15 -29 3 -7 10 -27 21 -44 25 -28 6 -30 9 -15 17 13 7 22 5 36 -7 10 -9 21
-12 24 -7 3 5 -7 15 -23 22 -24 9 -39 9 -83 -4 -29 -8 -79 -18 -110 -21 -32
-4 -58 -10 -58 -14 0 -13 721 -361 747 -361 3 0 2 82 -1 183 -3 100 -6 194 -6
210 -1 15 -2 27 -3 27 -1 0 -10 -7 -20 -14z m-30 -72 c-3 -3 -12 -4 -19 -1 -8
3 -5 6 6 6 11 1 17 -2 13 -5z m-331 -19 c-11 -8 -25 -15 -30 -15 -6 0 -2 7 8
15 11 8 25 15 30 15 6 0 2 -7 -8 -15z m-96 1 c0 -3 -4 -8 -10 -11 -5 -3 -10
-1 -10 4 0 6 5 11 10 11 6 0 10 -2 10 -4z m201 -29 c-6 -6 -24 -5 -48 1 l-38
11 48 -2 c29 0 44 -4 38 -10z m-91 -17 c0 -5 -7 -7 -15 -4 -8 4 -15 8 -15 10
0 2 7 4 15 4 8 0 15 -4 15 -10z"/>
<path d="M898 1193 c7 -3 16 -2 19 1 4 3 -2 6 -13 5 -11 0 -14 -3 -6 -6z"/>
<path d="M4410 1169 c0 -4 -17 -16 -37 -26 -21 -9 -40 -20 -43 -23 -3 -4 -13
-9 -23 -13 -10 -4 -15 -11 -12 -17 9 -14 54 -12 113 5 29 9 58 15 65 13 6 -1
23 9 37 23 l26 26 -26 11 c-30 13 -100 14 -100 1z"/>
<path d="M1000 1151 c0 -5 5 -13 10 -16 6 -3 10 -2 10 4 0 5 -4 13 -10 16 -5
3 -10 2 -10 -4z"/>
<path d="M5089 1123 c-13 -16 -12 -17 4 -4 16 13 21 21 13 21 -2 0 -10 -8 -17
-17z"/>
<path d="M978 1123 c7 -3 16 -2 19 1 4 3 -2 6 -13 5 -11 0 -14 -3 -6 -6z"/>
<path d="M3096 981 c-16 -25 -61 -102 -99 -171 -74 -134 -103 -179 -123 -196
-7 -5 -16 -23 -19 -40 l-6 -29 23 27 c13 15 50 63 83 107 33 44 68 83 77 86
29 10 105 90 128 135 12 23 20 44 18 46 -2 1 -19 -18 -38 -43 -38 -51 -150
-150 -132 -118 5 11 24 33 41 49 17 17 31 38 31 47 0 10 12 40 26 68 34 68 27
91 -10 32z"/>
<path d="M4784 996 c-8 -27 -8 -33 2 -29 17 6 28 43 17 54 -5 5 -13 -6 -19
-25z"/>
<path d="M4900 970 c0 -11 4 -20 9 -20 5 0 7 9 4 20 -3 11 -7 20 -9 20 -2 0
-4 -9 -4 -20z"/>
<path d="M2902 898 c-12 -26 -22 -57 -22 -70 0 -14 10 -1 25 37 30 72 27 99
-3 33z"/>
<path d="M2867 657 c-11 -29 -9 -43 4 -30 6 6 9 19 7 29 -3 18 -4 18 -11 1z"/>
<path d="M2850 529 c0 -5 5 -7 10 -4 6 3 10 8 10 11 0 2 -4 4 -10 4 -5 0 -10
-5 -10 -11z"/>
<path d="M4209 503 c-13 -16 -12 -17 4 -4 9 7 17 15 17 17 0 8 -8 3 -21 -13z"/>
<path d="M2816 363 c-16 -48 -31 -94 -33 -100 -3 -8 3 -13 15 -13 15 0 21 9
26 38 4 20 11 49 17 63 6 15 9 43 7 63 -3 34 -5 30 -32 -51z"/>
<path d="M4050 430 c0 -6 -9 -20 -20 -32 -11 -12 -20 -29 -20 -38 0 -10 -11
-29 -25 -44 -14 -15 -25 -36 -25 -47 0 -21 -16 -54 -38 -78 -34 -36 -38 -91
-7 -91 9 0 13 -5 10 -10 -5 -8 -11 -7 -21 1 -11 9 -18 9 -26 1 -15 -15 -3 -41
24 -51 18 -7 27 -5 40 11 10 11 15 24 12 29 -3 5 -1 9 4 9 11 0 34 47 39 80 3
13 9 27 14 31 7 4 4 12 -6 22 -14 15 -14 19 0 47 8 16 15 31 15 32 -2 5 11 43
21 61 5 10 7 22 4 26 -3 5 2 11 10 15 17 6 21 36 5 36 -5 0 -10 -5 -10 -10z"/>
<path d="M4080 359 c0 -5 5 -7 10 -4 6 3 10 8 10 11 0 2 -4 4 -10 4 -5 0 -10
-5 -10 -11z"/>
<path d="M4095 339 c-4 -6 -5 -12 -2 -15 2 -3 7 2 10 11 7 17 1 20 -8 4z"/>
</g>
</svg>
